<svg width="9" height="12" viewBox="0 0 9 12" fill="none" xmlns="http://www.w3.org/2000/svg">
<mask id="path-1-outside-1_137_1693" maskUnits="userSpaceOnUse" x="-0.582764" y="-0.200073" width="9" height="13" fill="black">
<rect fill="white" x="-0.582764" y="-0.200073" width="9" height="13"/>
<path fill-rule="evenodd" clip-rule="evenodd" d="M5.9646 5.64023L2.12434 1.79994L1.41724 2.50705L5.2575 6.34734L5.9646 5.64023ZM1.77521 9.82968L5.9646 5.64029L6.67171 6.34739L2.48232 10.5368L1.77521 9.82968Z"/>
</mask>
<path fill-rule="evenodd" clip-rule="evenodd" d="M5.9646 5.64023L2.12434 1.79994L1.41724 2.50705L5.2575 6.34734L5.9646 5.64023ZM1.77521 9.82968L5.9646 5.64029L6.67171 6.34739L2.48232 10.5368L1.77521 9.82968Z" fill="white"/>
<path d="M2.12434 1.79993L2.83145 1.09282L2.12433 0.3857L1.41722 1.09283L2.12434 1.79993ZM5.9646 5.64023L6.67172 6.34733L7.3788 5.64022L6.67171 4.93313L5.9646 5.64023ZM1.41724 2.50705L0.71012 1.79995L0.00303578 2.50706L0.710126 3.21415L1.41724 2.50705ZM1.77521 9.82968L1.0681 9.12258L0.360994 9.82969L1.06811 10.5368L1.77521 9.82968ZM2.48232 10.5368L1.77522 11.2439L2.48232 11.951L3.18942 11.2439L2.48232 10.5368ZM6.67171 6.34738L7.37882 7.05449L8.08593 6.34737L7.37881 5.64027L6.67171 6.34738ZM5.9646 5.64029L6.6717 4.93318L5.96462 4.2261L5.25752 4.93316L5.9646 5.64029ZM1.41723 2.50703L5.25749 6.34733L6.67171 4.93313L2.83145 1.09282L1.41723 2.50703ZM2.12435 3.21415L2.83146 2.50702L1.41722 1.09283L0.71012 1.79995L2.12435 3.21415ZM5.96461 5.64025L2.12435 1.79995L0.710126 3.21415L4.55039 7.05445L5.96461 5.64025ZM4.55039 5.64025L1.0681 9.12258L2.48232 10.5368L5.96461 7.05445L4.55039 5.64025ZM1.06811 10.5368L1.77522 11.2439L3.18942 9.82966L2.48231 9.12257L1.06811 10.5368ZM3.18942 11.2439L7.37882 7.05449L5.9646 5.64027L1.77521 9.82967L3.18942 11.2439ZM7.37881 5.64027L6.6717 4.93318L5.2575 6.3474L5.96461 7.0545L7.37881 5.64027ZM5.25752 4.93316L4.55041 5.64022L5.96458 7.05448L6.67169 6.34742L5.25752 4.93316ZM5.25749 4.93313L4.55038 5.64025L5.96461 7.05445L6.67172 6.34733L5.25749 4.93313Z" fill="white" mask="url(#path-1-outside-1_137_1693)"/>
</svg>
