<svg width="10" height="14" viewBox="0 0 10 14" fill="none" xmlns="http://www.w3.org/2000/svg">
<mask id="path-1-outside-1_137_1752" maskUnits="userSpaceOnUse" x="-0.203613" y="-0.400146" width="10" height="14" fill="black">
<rect fill="white" x="-0.203613" y="-0.400146" width="10" height="14"/>
<path fill-rule="evenodd" clip-rule="evenodd" d="M6.98381 6.08017L2.50349 1.59985L1.79639 2.30696L6.27667 6.78724L2.09612 10.9678L2.80323 11.6749L7.69085 6.78727L6.98379 6.0802L6.98381 6.08017Z"/>
</mask>
<path fill-rule="evenodd" clip-rule="evenodd" d="M6.98381 6.08017L2.50349 1.59985L1.79639 2.30696L6.27667 6.78724L2.09612 10.9678L2.80323 11.6749L7.69085 6.78727L6.98379 6.0802L6.98381 6.08017Z" fill="#3AA18E"/>
<path d="M2.50349 1.59985L3.2106 0.892747L2.50349 0.18564L1.79639 0.892747L2.50349 1.59985ZM6.98381 6.08017L7.69092 6.78728L8.39803 6.08017L7.69092 5.37307L6.98381 6.08017ZM1.79639 2.30696L1.08928 1.59985L0.382173 2.30696L1.08928 3.01407L1.79639 2.30696ZM6.27667 6.78724L6.98377 7.49435L7.69088 6.78724L6.98377 6.08013L6.27667 6.78724ZM2.09612 10.9678L1.38902 10.2607L0.681908 10.9678L1.38902 11.6749L2.09612 10.9678ZM2.80323 11.6749L2.09612 12.382L2.80323 13.0891L3.51034 12.382L2.80323 11.6749ZM7.69085 6.78727L8.39796 7.49437L9.10507 6.78727L8.39796 6.08016L7.69085 6.78727ZM6.98379 6.0802L6.27668 5.37309L5.56957 6.0802L6.27668 6.78731L6.98379 6.0802ZM1.79639 2.30696L6.27671 6.78728L7.69092 5.37307L3.2106 0.892747L1.79639 2.30696ZM2.50349 3.01407L3.2106 2.30696L1.79639 0.892747L1.08928 1.59985L2.50349 3.01407ZM6.98377 6.08013L2.50349 1.59985L1.08928 3.01407L5.56956 7.49435L6.98377 6.08013ZM5.56956 6.08013L1.38902 10.2607L2.80323 11.6749L6.98377 7.49435L5.56956 6.08013ZM1.38902 11.6749L2.09612 12.382L3.51034 10.9678L2.80323 10.2607L1.38902 11.6749ZM3.51034 12.382L8.39796 7.49437L6.98375 6.08016L2.09612 10.9678L3.51034 12.382ZM8.39796 6.08016L7.69089 5.37309L6.27668 6.78731L6.98375 7.49437L8.39796 6.08016ZM6.27671 5.37307L6.27668 5.37309L7.69089 6.78731L7.69092 6.78728L6.27671 5.37307Z" fill="#3AA18E" mask="url(#path-1-outside-1_137_1752)"/>
</svg>
