<svg width="12" height="18" viewBox="0 0 12 18" fill="none" xmlns="http://www.w3.org/2000/svg">
<mask id="path-1-outside-1_145_3684" maskUnits="userSpaceOnUse" x="0" y="0" width="12" height="18" fill="black">
<rect fill="white" width="12" height="18"/>
<path fill-rule="evenodd" clip-rule="evenodd" d="M9.10757 8.40046L2.70711 2L2 2.70711L8.40046 9.10757L2.12522 15.3828L2.83232 16.0899L9.81465 9.1076L9.10754 8.40049L9.10757 8.40046Z"/>
</mask>
<path fill-rule="evenodd" clip-rule="evenodd" d="M9.10757 8.40046L2.70711 2L2 2.70711L8.40046 9.10757L2.12522 15.3828L2.83232 16.0899L9.81465 9.1076L9.10754 8.40049L9.10757 8.40046Z" fill="white"/>
<path d="M2.70711 2L3.41421 1.29289L2.70711 0.585786L2 1.29289L2.70711 2ZM9.10757 8.40046L9.80299 9.11906L10.5335 8.41215L9.81468 7.69336L9.10757 8.40046ZM2 2.70711L1.29289 2L0.585786 2.70711L1.29289 3.41421L2 2.70711ZM8.40046 9.10757L9.10757 9.81468L9.81468 9.10757L9.10757 8.40046L8.40046 9.10757ZM2.12522 15.3828L1.41811 14.6757L0.711003 15.3828L1.41811 16.0899L2.12522 15.3828ZM2.83232 16.0899L2.12522 16.797L2.83232 17.5041L3.53943 16.797L2.83232 16.0899ZM9.81465 9.1076L10.5218 9.8147L11.2289 9.1076L10.5218 8.40049L9.81465 9.1076ZM9.10754 8.40049L8.41212 7.68189L7.68164 8.3888L8.40043 9.1076L9.10754 8.40049ZM2 2.70711L8.40046 9.10757L9.81468 7.69336L3.41421 1.29289L2 2.70711ZM2.70711 3.41421L3.41421 2.70711L2 1.29289L1.29289 2L2.70711 3.41421ZM9.10757 8.40046L2.70711 2L1.29289 3.41421L7.69336 9.81468L9.10757 8.40046ZM7.69336 8.40046L1.41811 14.6757L2.83232 16.0899L9.10757 9.81468L7.69336 8.40046ZM1.41811 16.0899L2.12522 16.797L3.53943 15.3828L2.83232 14.6757L1.41811 16.0899ZM3.53943 16.797L10.5218 9.8147L9.10754 8.40049L2.12522 15.3828L3.53943 16.797ZM10.5218 8.40049L9.81465 7.69338L8.40043 9.1076L9.10754 9.8147L10.5218 8.40049ZM8.41215 7.68186L8.41212 7.68189L9.80296 9.11909L9.80299 9.11906L8.41215 7.68186Z" fill="white" mask="url(#path-1-outside-1_145_3684)"/>
</svg>
