<svg width="10" height="14" viewBox="0 0 10 14" fill="none" xmlns="http://www.w3.org/2000/svg">
<mask id="path-1-outside-1_137_1757" maskUnits="userSpaceOnUse" x="0.203613" y="-0.400146" width="10" height="14" fill="black">
<rect fill="white" x="0.203613" y="-0.400146" width="10" height="14"/>
<path fill-rule="evenodd" clip-rule="evenodd" d="M3.01619 6.08017L7.49651 1.59985L8.20361 2.30696L3.72333 6.78724L7.90388 10.9678L7.19677 11.6749L2.30915 6.78727L3.01621 6.0802L3.01619 6.08017Z"/>
</mask>
<path fill-rule="evenodd" clip-rule="evenodd" d="M3.01619 6.08017L7.49651 1.59985L8.20361 2.30696L3.72333 6.78724L7.90388 10.9678L7.19677 11.6749L2.30915 6.78727L3.01621 6.0802L3.01619 6.08017Z" fill="#3AA18E"/>
<path d="M7.49651 1.59985L6.7894 0.892747L7.49651 0.18564L8.20361 0.892747L7.49651 1.59985ZM3.01619 6.08017L2.30908 6.78728L1.60197 6.08017L2.30908 5.37307L3.01619 6.08017ZM8.20361 2.30696L8.91072 1.59985L9.61783 2.30696L8.91072 3.01407L8.20361 2.30696ZM3.72333 6.78724L3.01623 7.49435L2.30912 6.78724L3.01623 6.08013L3.72333 6.78724ZM7.90388 10.9678L8.61098 10.2607L9.31809 10.9678L8.61098 11.6749L7.90388 10.9678ZM7.19677 11.6749L7.90388 12.382L7.19677 13.0891L6.48966 12.382L7.19677 11.6749ZM2.30915 6.78727L1.60204 7.49437L0.894935 6.78727L1.60204 6.08016L2.30915 6.78727ZM3.01621 6.0802L3.72332 5.37309L4.43043 6.0802L3.72332 6.78731L3.01621 6.0802ZM8.20361 2.30696L3.72329 6.78728L2.30908 5.37307L6.7894 0.892747L8.20361 2.30696ZM7.49651 3.01407L6.7894 2.30696L8.20361 0.892747L8.91072 1.59985L7.49651 3.01407ZM3.01623 6.08013L7.49651 1.59985L8.91072 3.01407L4.43044 7.49435L3.01623 6.08013ZM4.43044 6.08013L8.61098 10.2607L7.19677 11.6749L3.01623 7.49435L4.43044 6.08013ZM8.61098 11.6749L7.90388 12.382L6.48966 10.9678L7.19677 10.2607L8.61098 11.6749ZM6.48966 12.382L1.60204 7.49437L3.01625 6.08016L7.90388 10.9678L6.48966 12.382ZM1.60204 6.08016L2.30911 5.37309L3.72332 6.78731L3.01625 7.49437L1.60204 6.08016ZM3.72329 5.37307L3.72332 5.37309L2.30911 6.78731L2.30908 6.78728L3.72329 5.37307Z" fill="#3AA18E" mask="url(#path-1-outside-1_137_1757)"/>
</svg>
