<svg width="24" height="22" viewBox="0 0 24 22" fill="none" xmlns="http://www.w3.org/2000/svg">
<path fill-rule="evenodd" clip-rule="evenodd" d="M7.50044 7.54201L6.59921 4.78268H10.9117C11.3699 4.78268 11.7412 4.41112 11.7412 3.9529C11.7412 3.49469 11.3699 3.12313 10.9117 3.12313H6.05723L5.22455 0.573663C5.11105 0.223774 4.78638 0.00129349 4.43714 0.00129349L1.32921 0C0.870987 0 0.499756 0.371232 0.499756 0.82945C0.499756 1.28767 0.870987 1.65922 1.32921 1.65922H3.83696C5.32286 6.20972 6.80907 10.7605 8.29497 15.3114C7.70546 15.4323 7.17869 15.725 6.76865 16.135C6.22151 16.6821 5.88294 17.4382 5.88294 18.2728C5.88294 19.1078 6.22151 19.8638 6.76865 20.4106C7.3158 20.9581 8.07184 21.2963 8.90647 21.2963C9.74142 21.2963 10.4971 20.9581 11.0446 20.4106C11.5918 19.8635 11.93 19.1078 11.93 18.2728C11.93 17.7819 11.8129 17.3185 11.6053 16.9085H17.3659C17.1573 17.3189 17.0396 17.7822 17.0396 18.2728C17.0396 19.1078 17.3782 19.8635 17.9253 20.4106C18.4725 20.9581 19.2285 21.2963 20.0635 21.2963C20.8981 21.2963 21.6541 20.9581 22.2013 20.4106C22.7484 19.8635 23.0867 19.1078 23.0867 18.2728C23.0867 17.4404 22.7487 16.686 22.2019 16.1389C21.6399 15.5762 20.8577 15.2493 20.0615 15.2493H10.0173L9.53931 13.7854L20.0638 13.7841C20.4127 13.7841 20.7374 13.5616 20.8512 13.2117L23.7738 4.26108C23.812 4.16601 23.833 4.06188 23.833 3.9529C23.833 3.49469 23.4618 3.12313 23.0036 3.12313H17.5489C17.0907 3.12313 16.7195 3.49469 16.7195 3.9529C16.7195 4.41112 17.0907 4.78268 17.5489 4.78268H21.8614L20.9602 7.54201H7.50044ZM20.4185 9.20059H8.04177L8.99734 12.1261H19.4633L20.4185 9.20059ZM14.2301 3.12313C13.7719 3.12313 13.4007 3.49469 13.4007 3.9529C13.4007 4.41112 13.7719 4.78235 14.2301 4.78235C14.6884 4.78235 15.0599 4.41112 15.0599 3.9529C15.0599 3.49469 14.6884 3.12313 14.2301 3.12313ZM20.1204 16.9066C20.4745 16.9208 20.7943 17.0705 21.0287 17.3056C21.2751 17.552 21.4278 17.8941 21.4278 18.2728C21.4278 18.6499 21.2748 18.991 21.0281 19.2377C20.7813 19.4845 20.4402 19.6371 20.0635 19.6371C19.6867 19.6371 19.3456 19.4845 19.0988 19.2377C18.8518 18.9907 18.6992 18.6495 18.6992 18.2728C18.6992 17.8941 18.8518 17.552 19.0982 17.3056C19.3242 17.0792 19.6295 16.9318 19.9684 16.9085C20.0266 16.9036 20.0609 16.9036 20.1204 16.9066ZM9.87141 17.3082C10.1181 17.5549 10.2708 17.8961 10.2708 18.2728C10.2708 18.6499 10.1181 18.9907 9.87141 19.2377C9.62468 19.4845 9.28352 19.6371 8.90679 19.6371C8.52974 19.6371 8.18858 19.4845 7.94217 19.2374C7.69512 18.9907 7.54248 18.6495 7.54248 18.2728C7.54248 17.8961 7.69512 17.5549 7.94217 17.3082C8.18858 17.0611 8.53006 16.9085 8.90679 16.9085C9.28352 16.9085 9.62468 17.0611 9.87141 17.3082Z" fill="white"/>
</svg>
