<svg width="25" height="25" viewBox="0 0 25 25" fill="none" xmlns="http://www.w3.org/2000/svg">
	<g opacity="0.7">
		<circle cx="12.5" cy="12.5" r="12" stroke="#747678"/>
		<path d="M11.4025 9.468H13.5865V17H11.4025V9.468ZM12.4945 8.418C12.0932 8.418 11.7665 8.30133 11.5145 8.068C11.2625 7.83467 11.1365 7.54533 11.1365 7.2C11.1365 6.85467 11.2625 6.56533 11.5145 6.332C11.7665 6.09867 12.0932 5.982 12.4945 5.982C12.8959 5.982 13.2225 6.094 13.4745 6.318C13.7265 6.542 13.8525 6.822 13.8525 7.158C13.8525 7.522 13.7265 7.82533 13.4745 8.068C13.2225 8.30133 12.8959 8.418 12.4945 8.418Z" fill="#747678"/>
	</g>
</svg>
