<svg width="172" height="56" viewBox="0 0 172 56" fill="none" xmlns="http://www.w3.org/2000/svg">
<path d="M80.4623 16.9301C79.7994 21.5473 75.4201 23.3938 71.2008 23.1047C65.2827 22.6815 64.0893 18.4876 64.6463 14.3975C64.9109 12.6035 65.6015 7.69719 65.9191 5.26837C64.6727 5.34854 63.5309 5.6114 62.8945 6.32506C62.3904 6.85341 62.364 7.93508 62.8416 8.59486C63.5045 9.46492 64.514 9.19943 63.4515 10.5453C62.708 11.4955 59.8157 12.9741 57.163 11.1788C55.013 9.70149 54.8542 6.8521 56.0754 5.00551C57.933 2.20868 63.5058 2.02337 67.3797 2.1548C77.3848 2.49914 80.6224 4.95162 80.3829 8.14405C80.1435 10.9146 77.623 11.8911 77.623 11.8911C77.5436 11.9437 77.5171 12.0225 77.623 12.0501C79.8788 12.9465 80.7282 15.1098 80.4623 16.9301ZM70.7245 13.8442C70.7245 13.8442 70.485 15.6907 70.3792 16.5069C70.1397 18.3548 70.4585 19.911 72.1574 19.8334C73.6167 19.7519 74.4661 18.4087 74.7043 16.6397C75.0496 14.1333 73.2449 13.2107 70.7245 13.8442ZM71.8107 5.47997L71.1743 10.7043C73.6683 10.7845 74.6236 9.57138 74.8101 8.17165C75.1819 6.24489 73.7226 5.40111 71.8107 5.47997ZM96.5919 21.6524C95.8735 22.3385 94.9182 23.0245 93.4324 23.1034C88.5225 23.315 88.7884 19.0672 88.6813 17.1943C88.496 17.2206 88.3373 17.2206 88.2036 17.2456L87.4349 22.6552C87.4349 22.7617 87.3291 22.7617 87.3291 22.7617H82.2352C82.2352 22.7617 82.1281 22.7617 82.1545 22.6552L83.2421 14.8194C83.7462 10.6228 81.8357 11.5218 82.1545 10.8094C82.5541 9.96435 84.118 8.93657 85.6038 8.93657C87.7538 8.93657 89.106 10.4664 88.8149 12.9465L88.496 15.1098C89.2131 14.9771 89.7424 14.7668 90.2213 14.4514C92.37 13.028 90.5124 11.1012 90.5124 10.9159C90.5931 10.0196 92.026 9.01543 93.5131 9.01543C95.6353 9.01543 96.7494 10.4927 96.5364 12.3406C96.3247 14.0558 94.7859 15.2426 92.8754 16.1402C93.3266 17.7227 94.4671 19.3314 96.6171 20.7298C96.9611 20.9663 97.1212 21.1254 96.5919 21.6524ZM103.353 28.6458C99.4789 28.6458 98.0195 26.0592 97.8343 25.0564C97.567 23.7645 97.8608 23.5266 98.1267 23.5779C98.7618 23.6843 99.2936 25.6899 102.265 25.6899C104.387 25.6899 105.767 24.2639 106.061 22.6802L106.379 20.0424C104.999 22.3122 103.115 23.1034 101.708 23.1034C99.7448 23.1034 98.2855 21.3882 98.6043 18.7491L99.0806 14.7918C99.6112 10.5965 97.4877 11.4942 97.8065 10.7832C98.2048 9.93807 99.7699 8.90897 101.256 8.90897C103.406 8.90897 104.972 10.4401 104.652 12.9189L104.042 17.8791C103.723 20.5155 106.323 19.5942 106.748 16.5056C107.225 12.7073 107.624 9.56875 107.624 9.56875C107.624 9.43601 107.73 9.43601 107.73 9.43601H112.853C112.853 9.43601 112.958 9.43601 112.958 9.56875C112.958 9.56875 112.082 17.2968 111.631 20.8073C111.234 25.3732 108.263 28.6458 103.353 28.6458ZM126.967 18.8819C126.516 19.9898 124.183 23.1034 120.308 23.1034C116.274 23.1034 113.461 19.8834 113.939 15.901C114.418 12.0488 117.788 8.90897 121.875 8.72497C124.846 8.72497 127.659 9.9131 127.367 12.4195C127.234 13.6851 126.013 15.0573 124.447 15.0573C123.571 15.0573 122.75 14.7668 122.643 14.6091C122.537 14.3712 122.696 14.0558 122.75 13.5274C122.883 12.4457 122.457 11.7058 121.714 11.7058C120.282 11.7058 119.3 13.9506 119.248 15.9024C119.087 20.6246 123.679 20.0963 126.57 18.4876C126.705 18.4087 126.863 18.3824 126.942 18.46C127.021 18.5401 127.073 18.6453 126.967 18.8819ZM143.789 21.4684C143.418 22.2872 141.878 23.2611 140.392 23.2611C138.244 23.2611 136.862 21.7851 137.156 19.3038L137.368 17.5373H134.767C134.448 20.07 134.157 22.6013 134.157 22.6013C134.129 22.7341 133.997 22.7617 133.997 22.7617H128.691C128.691 22.7617 128.556 22.7341 128.61 22.6289C128.61 22.6289 129.538 16.6121 129.751 14.7931C130.28 10.5978 128.344 11.4955 128.69 10.7845C129.087 9.93938 130.627 8.91029 132.113 8.91029C134.261 8.91029 135.641 10.4414 135.349 12.9202L135.164 14.4514H137.763C138.056 12.0501 138.347 9.62264 138.347 9.62264C138.373 9.49121 138.506 9.49121 138.506 9.49121H143.602C143.602 9.49121 143.708 9.49121 143.682 9.62264C143.682 9.62264 142.939 15.6119 142.726 17.4322C142.197 21.6261 144.134 20.7298 143.789 21.4684ZM151.322 23.2361C147.05 22.9194 144.29 19.5416 144.766 15.5856C145.272 11.6808 148.827 8.7 153.099 8.98783C157.371 9.30589 160.131 12.7099 159.63 16.6397C159.15 20.5721 155.673 23.5266 151.322 23.2361ZM151.691 20.2803C153.286 20.3867 154.106 18.5651 154.4 16.2704C154.693 14.0006 154.267 12.0501 152.729 11.9437C151.161 11.8385 150.286 13.7127 149.995 15.9536C149.728 18.1432 150.153 20.1751 151.691 20.2803ZM78.9209 40.9147C78.4168 44.8721 75.4452 47.3785 71.0658 47.2208C66.9537 47.063 64.8831 43.5 65.0154 40.2826C65.2284 36.1925 66.1294 31.0746 70.1106 29.4646C73.6405 28.0149 76.1081 29.1754 76.4005 27.3551C76.4534 27.0647 76.5606 27.1173 76.8252 27.0897C78.8945 27.0634 80.0892 28.9914 79.5587 30.6264C78.3123 34.4773 73.0306 31.8395 70.4572 33.581C69.502 34.2132 68.7319 35.2961 68.4144 37.194C69.1844 35.4788 71.0936 34.292 72.9525 34.2394C76.8781 34.1869 79.3986 36.9574 78.9209 40.9147ZM73.6935 40.7281C73.88 39.1457 73.9065 37.1677 72.3413 37.1138C70.8012 37.0625 70.2971 39.0655 70.1106 40.623C69.9253 42.0214 69.9253 44.1598 71.4376 44.2123C73.0571 44.2662 73.5082 42.233 73.6935 40.7281ZM100.281 45.3479C99.8811 46.193 98.3424 47.2208 96.8565 47.2208C94.7343 47.2208 93.1413 45.6909 93.4324 43.2095L94.0688 38.0903C94.3348 35.9546 92.9812 36.1386 92.2377 37.9063C92.9548 38.804 93.3253 40.0158 93.1413 41.4405C92.7431 44.8432 89.5849 47.2181 86.0563 47.2181C81.1463 47.2181 80.1117 43.9205 80.4041 41.493C80.6436 39.699 81.4123 33.4732 81.3858 33.4995C81.4123 33.3943 81.5194 33.3667 81.5194 33.3667H86.6398C86.6398 33.3667 86.7469 33.3943 86.7205 33.5258C86.7205 33.5258 86.5617 34.7914 86.3765 36.4277C87.0115 36.3213 87.7816 36.2411 88.5251 36.2411C89.5055 36.2411 90.4092 36.5066 91.1792 36.9811C92.5579 33.9214 94.815 32.8634 96.4054 32.8634C98.3966 32.8634 99.856 34.5798 99.5371 37.2176L99.0317 41.3353C98.5011 45.5319 100.651 44.6329 100.281 45.3479ZM88.152 41.3117C88.3399 39.7818 87.7816 38.7777 86.6133 38.7777C86.4267 38.7777 86.2137 38.8053 86.0827 38.8303L85.6845 42.049C85.5786 43.0768 85.6316 44.1598 86.5604 44.1598C87.6479 44.1611 87.9655 42.7364 88.152 41.3117ZM114.34 42.8415C113.888 43.9495 111.555 47.063 107.679 47.063C103.647 47.063 100.832 43.8443 101.31 39.8607C101.789 36.0072 105.159 32.8673 109.246 32.6846C112.217 32.6846 115.03 33.8701 114.738 36.3791C114.606 37.6435 113.386 39.0169 111.818 39.0169C110.943 39.0169 110.122 38.7251 110.016 38.5687C109.91 38.3308 110.067 38.0141 110.122 37.4871C110.254 36.4067 109.828 35.6654 109.086 35.6654C107.653 35.6654 106.671 37.909 106.62 39.8607C106.459 44.583 111.05 44.0546 113.943 42.4459C114.076 42.367 114.234 42.3408 114.315 42.4196C114.394 42.4985 114.446 42.6036 114.34 42.8415ZM138.908 45.3742C138.539 46.193 136.972 47.2208 135.486 47.2208C133.363 47.2208 131.77 45.6909 132.064 43.2095L132.699 38.0903C133.045 35.4525 130.416 36.3765 130.043 39.4887L129.992 39.9632C129.78 41.677 129.38 46.5583 129.38 46.5583C129.354 46.6911 129.223 46.7174 129.223 46.7174H123.913C123.913 46.7174 123.781 46.6898 123.834 46.5833C123.834 46.5833 124.392 41.677 124.631 39.9632C124.711 39.3323 124.789 38.6712 124.844 38.089C125.189 35.4512 122.56 36.3752 122.189 39.4874C121.818 42.4958 121.314 46.557 121.314 46.557C121.286 46.6898 121.153 46.7161 121.153 46.7161H115.848C115.848 46.7161 115.741 46.6885 115.766 46.582C115.766 46.582 116.695 40.5678 116.908 38.7462C117.437 34.5536 115.528 35.4499 115.873 34.7376C116.242 33.8938 117.81 32.862 119.296 32.862C121.152 32.862 122.401 33.9989 122.533 35.8981C123.912 33.6822 125.824 32.862 127.203 32.862C128.875 32.862 130.149 34.0502 130.334 36.0032C131.714 33.6822 133.651 32.862 135.058 32.862C137.048 32.862 138.507 34.5785 138.162 37.2163L137.659 41.334C137.157 45.5319 139.281 44.6329 138.908 45.3742ZM131.398 31.6016C128.613 31.4689 126.065 30.6264 123.969 30.6514C121.155 30.6514 120.173 31.7331 119.804 31.8132C118.928 32.0235 120.016 26.8518 126.065 27.0634C129.567 27.1698 130.92 28.0662 133.76 28.145C136.52 28.2502 137.607 27.0371 137.9 26.9319C138.724 26.6152 138.883 31.787 131.398 31.6016ZM155.835 40.1222C155.411 43.7365 153.127 47.272 149.65 47.272C147.82 47.272 146.652 46.2429 146.015 44.7656C145.511 48.7493 145.059 52.4162 145.059 52.4162C145.059 52.5489 144.901 52.5739 144.901 52.5739H139.593C139.593 52.5739 139.487 52.5476 139.514 52.4411C139.514 52.4411 140.947 40.6217 141.185 38.8027C141.689 34.6061 139.991 35.5038 140.309 34.7914C140.707 33.9463 142.272 32.9186 143.758 32.9186C145.589 32.9186 146.865 34.0515 146.996 35.9257C148.11 34.1842 149.703 32.9186 151.56 32.9186C154.905 32.9212 156.286 36.5881 155.835 40.1222ZM150.395 40.1222C150.659 38.1442 150.155 36.5605 148.856 36.5605C147.555 36.5605 146.678 38.1442 146.415 40.1222C146.174 42.1003 146.678 43.7103 147.98 43.7103C149.282 43.7103 150.155 42.1003 150.395 40.1222ZM163.635 47.1945C159.363 46.8777 156.601 43.4987 157.079 39.5426C157.583 35.6378 161.139 32.657 165.412 32.9462C169.684 33.2629 172.444 36.6656 171.941 40.5954C171.462 44.5291 167.985 47.4836 163.635 47.1945ZM164.004 44.2399C165.597 44.3451 166.419 42.5235 166.712 40.2274C167.005 37.9589 166.579 36.0058 165.04 35.9007C163.472 35.7942 162.598 37.6684 162.306 39.9119C162.041 42.1002 162.465 44.1335 164.004 44.2399Z" fill="#40AE49"/>
<path fill-rule="evenodd" clip-rule="evenodd" d="M40.1276 47.4214C47.2185 42.8153 51.9042 34.8535 51.9042 25.8036C51.9042 11.5527 40.2851 0 25.9521 0C11.6192 0 0 11.5527 0 25.8036C0 39.055 10.0465 49.9734 22.9795 51.4398L40.1338 55.9991V47.4276L40.1276 47.4214Z" fill="#FD470E"/>
<path d="M12.0405 19.5161L40.7817 31.9336L12.0405 38.0043V19.5161Z" fill="white"/>
<path opacity="0.3" d="M12.0405 19.5161L40.7817 31.9336L12.0405 38.0043V19.5161Z" fill="url(#paint0_linear_1604_9907)"/>
<path d="M40.7817 9.97656V38.0026H12.0405L40.7817 9.97656Z" fill="white"/>
<path opacity="0.7" d="M12.0405 19.5161V38.0043H40.7817L12.0405 19.5161Z" fill="url(#paint1_linear_1604_9907)"/>
<path d="M12.0405 19.5161V38.0043H30.8322L12.0405 19.5161Z" fill="white"/>
<defs>
<linearGradient id="paint0_linear_1604_9907" x1="25.3942" y1="31.447" x2="27.2205" y2="21.0376" gradientUnits="userSpaceOnUse">
<stop offset="0.3518"/>
<stop offset="0.4529" stop-color="#292929"/>
<stop offset="0.681" stop-color="#919191"/>
<stop offset="0.9091" stop-color="white"/>
</linearGradient>
<linearGradient id="paint1_linear_1604_9907" x1="18.5198" y1="38.3984" x2="26.2986" y2="28.7682" gradientUnits="userSpaceOnUse">
<stop offset="0.2332"/>
<stop offset="0.3115" stop-color="#050505" stop-opacity="0.8979"/>
<stop offset="0.4064" stop-color="#141414" stop-opacity="0.7742"/>
<stop offset="0.5097" stop-color="#2C2C2C" stop-opacity="0.6394"/>
<stop offset="0.6193" stop-color="#4F4F4F" stop-opacity="0.4965"/>
<stop offset="0.7337" stop-color="#7B7B7B" stop-opacity="0.3473"/>
<stop offset="0.8522" stop-color="#B1B1B1" stop-opacity="0.1928"/>
<stop offset="0.9718" stop-color="#EFEFEF" stop-opacity="0.0368"/>
<stop offset="1" stop-color="white" stop-opacity="0"/>
</linearGradient>
</defs>
</svg>
