<svg width="18" height="17" viewBox="0 0 18 17" fill="none" xmlns="http://www.w3.org/2000/svg">
<path fill-rule="evenodd" clip-rule="evenodd" d="M12.1653 6.96906C12.1653 9.99319 9.76877 12.4447 6.81255 12.4447C3.85632 12.4447 1.45983 9.99319 1.45983 6.96906C1.45983 3.94492 3.85632 1.49337 6.81255 1.49337C9.76877 1.49337 12.1653 3.94492 12.1653 6.96906ZM11.4097 12.1122C10.198 13.2462 8.58427 13.9381 6.81255 13.9381C3.05008 13.9381 0 10.818 0 6.96906C0 3.12015 3.05008 0 6.81255 0C10.575 0 13.6251 3.12015 13.6251 6.96906C13.6251 8.45151 13.1726 9.82585 12.4012 10.9554L18 15.8951L16.9498 17L11.4097 12.1122Z" fill="white"/>
</svg>
