<svg width="14" height="20" viewBox="0 0 14 20" xmlns="http://www.w3.org/2000/svg">
<path d="M6.01563 14.0875C4.46517 13.9258 3.06719 13.5439 1.87031 12.6078C1.7218 12.4914 1.56847 12.3791 1.43294 12.249C0.909068 11.7459 0.856283 11.1696 1.27082 10.5758C1.62544 10.0676 2.22074 9.93168 2.8395 10.2235C2.95932 10.28 3.07348 10.3506 3.18282 10.4264C5.41342 11.9591 8.4777 12.0014 10.7167 10.4954C10.9385 10.3253 11.1756 10.1866 11.4504 10.1158C11.9848 9.9786 12.4831 10.1749 12.7699 10.6424C13.0975 11.1763 13.0933 11.6975 12.6896 12.112C12.0705 12.7475 11.3258 13.2073 10.4984 13.5282C9.71606 13.8315 8.85913 13.9842 8.01101 14.0856C8.13899 14.2249 8.19932 14.2934 8.27933 14.3738C9.43097 15.5309 10.5876 16.6832 11.7355 17.8438C12.1266 18.2393 12.2083 18.7297 11.993 19.1897C11.7575 19.6924 11.2305 20.0231 10.7137 19.9877C10.3863 19.9651 10.131 19.8021 9.90416 19.5736C9.03508 18.6991 8.14967 17.8407 7.29819 16.9496C7.0504 16.6905 6.93121 16.7395 6.71253 16.9645C5.83822 17.8646 4.94966 18.7508 4.05587 19.632C3.65454 20.0277 3.17695 20.0989 2.71152 19.8729C2.21676 19.6331 1.90194 19.1281 1.92623 18.6205C1.94299 18.2772 2.11182 18.015 2.34747 17.7797C3.48717 16.6417 4.62373 15.5007 5.76072 14.3608C5.83591 14.285 5.90608 14.2046 6.01563 14.0875Z"/>
<path d="M6.96019 10.1233C4.19419 10.1139 1.9261 7.82084 1.94222 5.05045C1.95814 2.24947 4.2277 -0.00773033 7.02093 1.98985e-05C9.81981 0.00756066 12.0663 2.29723 12.0523 5.12732C12.0381 7.89206 9.75425 10.1329 6.96019 10.1233ZM9.47398 5.05715C9.46916 3.68159 8.37366 2.5865 7.00082 2.58525C5.61646 2.58378 4.51111 3.69877 4.52179 5.0869C4.53206 6.45722 5.63699 7.54456 7.0136 7.53953C8.38602 7.53471 9.47859 6.4325 9.47398 5.05715Z"/>
</svg>
