<svg width="22" height="26" viewBox="0 0 22 26" fill="none" xmlns="http://www.w3.org/2000/svg">
<path d="M20.788 21.794C20.666 21.964 20.362 22.416 20.026 22.913C19.529 23.65 19.012 24.414 18.832 24.657C18.611 24.944 18.099 25.416 17.075 25.416C16.729 25.416 16.348 25.36 15.946 25.251C14.418 24.821 9.94395 22.366 7.18195 19.39L6.98499 19.195C4.01299 16.416 1.58 11.937 1.167 10.421C0.67 8.59599 1.40797 7.78999 1.74897 7.52899C2.00097 7.33599 2.83295 6.771 3.56995 6.27299C4.03295 5.95899 4.445 5.68 4.607 5.563C4.801 5.423 5.00996 5.349 5.22596 5.349C5.59296 5.349 5.87798 5.56999 6.02998 5.77699L9.62 9.58C9.657 9.621 9.68898 9.666 9.71198 9.717C9.84698 9.987 9.95401 10.573 9.50501 11.062C9.27101 11.323 8.379 12.5 8.055 12.932C8.034 12.959 8.01098 12.984 7.98798 13.005C8.00698 12.998 7.93998 13.13 8.10798 13.473C8.43098 14.145 9.13101 15.167 9.84901 15.827L10.537 16.519C11.133 17.168 12.14 17.917 12.893 18.278C13.293 18.475 13.4 18.373 13.403 18.37C13.426 18.345 13.415 18.357 13.443 18.336C13.872 18.012 15.042 17.118 15.304 16.88C15.535 16.671 15.818 16.558 16.123 16.558C16.389 16.558 16.584 16.642 16.638 16.669C16.689 16.694 16.738 16.726 16.78 16.767L20.575 20.373C20.693 20.458 20.914 20.663 20.979 20.991C21.02 21.179 21.017 21.471 20.788 21.794ZM16.12 17.671C16.099 17.671 16.08 17.679 16.053 17.704C15.717 18.01 14.379 19.022 14.135 19.206C14.02 19.31 13.74 19.506 13.29 19.506C13.011 19.506 12.716 19.431 12.41 19.281C11.522 18.854 10.421 18.035 9.73499 17.288L9.081 16.628C8.361 15.97 7.54399 14.864 7.10999 13.96C6.69099 13.111 6.94296 12.498 7.18696 12.231C7.38196 11.971 8.38301 10.643 8.68501 10.309C8.70601 10.286 8.716 10.264 8.719 10.246L5.193 6.50999C5.189 6.50699 5.18699 6.505 5.18299 6.5C5.01199 6.639 4.62399 6.903 4.19099 7.194C3.50399 7.659 2.64996 8.238 2.42396 8.412C2.29796 8.51 1.90996 8.91899 2.23896 10.124C2.57896 11.37 4.86399 15.686 7.75599 18.393L7.97999 18.616C10.67 21.513 14.988 23.824 16.24 24.175C16.545 24.259 16.827 24.302 17.075 24.302C17.622 24.302 17.856 24.103 17.948 23.984C18.109 23.767 18.662 22.947 19.106 22.289C19.414 21.833 19.696 21.414 19.84 21.207L16.12 17.671ZM12.26 4.134C11.163 3.032 9.77699 2.33 8.24799 2.104L8.41096 1C10.177 1.264 11.779 2.07399 13.046 3.34599C14.311 4.61699 15.119 6.224 15.383 7.993L14.283 8.159C14.056 6.626 13.356 5.233 12.26 4.134ZM12.393 8.44499L11.293 8.60699C11.161 7.72099 10.756 6.916 10.121 6.278C9.48698 5.641 8.68296 5.23399 7.79896 5.10199L7.96296 3.99899C9.08496 4.16799 10.104 4.68299 10.908 5.48999C11.712 6.29999 12.226 7.31899 12.393 8.44499Z" fill="white" stroke="white" stroke-width="0.3"/>
</svg>
