<svg width="21" height="21" viewBox="0 0 21 21" fill="none" xmlns="http://www.w3.org/2000/svg">
<path d="M16.2328 12.7809C15.8325 12.3641 15.3496 12.1412 14.8378 12.1412C14.3301 12.1412 13.8431 12.3599 13.4262 12.7768L12.122 14.0769C12.0147 14.0191 11.9074 13.9655 11.8042 13.9118C11.6556 13.8375 11.5153 13.7674 11.3956 13.6931C10.1739 12.9171 9.06364 11.9059 7.99879 10.5976C7.48287 9.94545 7.13618 9.39652 6.88441 8.83933C7.22285 8.52978 7.53653 8.20784 7.84195 7.89829C7.95752 7.78273 8.07308 7.66304 8.18865 7.54747C9.05539 6.68073 9.05539 5.5581 8.18865 4.69136L7.06189 3.56459C6.93394 3.43665 6.80186 3.30457 6.67804 3.1725C6.4304 2.9166 6.17038 2.65245 5.90211 2.40481C5.50175 2.00859 5.02298 1.7981 4.51945 1.7981C4.01591 1.7981 3.52889 2.00859 3.11616 2.40481C3.11203 2.40894 3.11203 2.40894 3.1079 2.41307L1.70461 3.82874C1.17631 4.35704 0.875013 5.00091 0.808976 5.74795C0.70992 6.95314 1.06487 8.07577 1.33727 8.81044C2.0059 10.6141 3.00472 12.2857 4.49468 14.0769C6.30246 16.2355 8.47756 17.9401 10.9622 19.1412C11.9115 19.591 13.1786 20.1235 14.5943 20.2143C14.6809 20.2184 14.7717 20.2225 14.8543 20.2225C15.8077 20.2225 16.6084 19.8799 17.2358 19.1989C17.2399 19.1907 17.2481 19.1866 17.2523 19.1783C17.4669 18.9183 17.7145 18.683 17.9746 18.4312C18.152 18.262 18.3336 18.0846 18.5111 17.8988C18.9197 17.4737 19.1343 16.9784 19.1343 16.4708C19.1343 15.959 18.9156 15.4678 18.4987 15.0551L16.2328 12.7809ZM17.7104 17.127C17.7063 17.127 17.7063 17.1311 17.7104 17.127C17.5494 17.3004 17.3843 17.4572 17.2069 17.6305C16.9386 17.8864 16.6662 18.1547 16.4103 18.456C15.9934 18.9018 15.5023 19.1123 14.8584 19.1123C14.7965 19.1123 14.7305 19.1123 14.6686 19.1081C13.4427 19.0297 12.3036 18.5509 11.4492 18.1423C9.11317 17.0114 7.06189 15.4059 5.3573 13.3711C3.94988 11.6748 3.00884 10.1064 2.38562 8.42247C2.00178 7.39476 1.86145 6.59406 1.92336 5.83876C1.96463 5.35586 2.15036 4.95551 2.49293 4.61294L3.90035 3.20552C4.10259 3.01566 4.31721 2.91248 4.5277 2.91248C4.78773 2.91248 4.99822 3.06931 5.13029 3.20139C5.13442 3.20552 5.13855 3.20964 5.14268 3.21377C5.39444 3.44903 5.63383 3.69254 5.8856 3.95256C6.01354 4.08464 6.14562 4.21671 6.27769 4.35292L7.40445 5.47968C7.84195 5.91717 7.84195 6.32165 7.40445 6.75915C7.28476 6.87884 7.1692 6.99854 7.0495 7.1141C6.70281 7.46905 6.37262 7.79924 6.01354 8.12117C6.00529 8.12943 5.99703 8.13355 5.99291 8.14181C5.63796 8.49676 5.70399 8.84345 5.77829 9.07871C5.78241 9.09109 5.78654 9.10348 5.79067 9.11586C6.08371 9.82576 6.49644 10.4944 7.1238 11.291L7.12792 11.2951C8.26707 12.6984 9.46812 13.7921 10.793 14.63C10.9622 14.7373 11.1356 14.824 11.3007 14.9065C11.4492 14.9808 11.5896 15.051 11.7093 15.1253C11.7258 15.1335 11.7423 15.1459 11.7588 15.1541C11.8991 15.2243 12.0312 15.2573 12.1674 15.2573C12.51 15.2573 12.7246 15.0427 12.7948 14.9725L14.2063 13.561C14.3466 13.4207 14.5695 13.2514 14.8295 13.2514C15.0854 13.2514 15.2959 13.4124 15.4239 13.5527C15.428 13.5569 15.428 13.5569 15.4321 13.561L17.7063 15.8352C18.1314 16.2561 18.1314 16.6895 17.7104 17.127Z" fill="white" stroke="white" stroke-width="0.5"/>
<path d="M11.346 5.31847C12.4274 5.50007 13.4097 6.01186 14.1939 6.79605C14.9781 7.58024 15.4858 8.56255 15.6715 9.64391C15.7169 9.91632 15.9521 10.1062 16.2204 10.1062C16.2534 10.1062 16.2823 10.102 16.3154 10.0979C16.6208 10.0484 16.823 9.75948 16.7735 9.45405C16.5506 8.14569 15.9315 6.95289 14.9863 6.00773C14.0412 5.06257 12.8484 4.44347 11.54 4.22059C11.2346 4.17107 10.9498 4.37331 10.8961 4.6746C10.8425 4.9759 11.0406 5.26894 11.346 5.31847Z" fill="white" stroke="white" stroke-width="0.5"/>
<path d="M20.3106 9.29336C19.9433 7.13889 18.9279 5.17841 17.3678 3.61828C15.8077 2.05814 13.8472 1.04282 11.6927 0.675487C11.3914 0.621832 11.1066 0.828198 11.053 1.12949C11.0035 1.43492 11.2057 1.7197 11.5111 1.77336C13.4345 2.09942 15.1886 3.01156 16.5836 4.40247C17.9787 5.79751 18.8867 7.55163 19.2127 9.47496C19.2581 9.74737 19.4934 9.93722 19.7617 9.93722C19.7947 9.93722 19.8236 9.9331 19.8566 9.92897C20.1579 9.88357 20.3643 9.59466 20.3106 9.29336Z" fill="white" stroke="white" stroke-width="0.5"/>
</svg>
