<svg width="20" height="18" viewBox="0 0 20 18" xmlns="http://www.w3.org/2000/svg">
<path d="M0.351569 8.67963L4.94141 10.3906L6.71876 16.1015C6.83204 16.4687 7.28126 16.6015 7.57813 16.3593L10.1367 14.2734C10.4063 14.0546 10.7852 14.0429 11.0664 14.246L15.6797 17.5937C15.9961 17.8242 16.4492 17.6523 16.5273 17.2656L19.9063 1.00775C19.9922 0.601504 19.5781 0.249942 19.1797 0.406192L0.347662 7.66791C-0.117181 7.8476 -0.113275 8.50775 0.351569 8.67963ZM6.42969 9.48041L15.3984 3.95697C15.5586 3.85932 15.7266 4.07416 15.5859 4.20307L8.18751 11.0859C7.92579 11.3281 7.75782 11.6523 7.71094 12.0038L7.45704 13.871C7.42188 14.121 7.07422 14.1445 7.00391 13.9023L6.03516 10.496C5.92579 10.1093 6.08594 9.69525 6.42969 9.48041Z" />
</svg>
