<svg width="30" height="26" viewBox="0 0 30 26" fill="none" xmlns="http://www.w3.org/2000/svg">
<path d="M18.3152 4.82446C18.3152 3.55797 19.2695 2.52755 20.4426 2.52755H23.0988C23.4859 2.52755 23.8009 2.18746 23.8009 1.76943C23.8009 1.34447 24.12 1 24.5135 1C24.907 1 25.2261 1.34447 25.2261 1.76943C25.2261 3.03599 24.2718 4.06641 23.0988 4.06641H20.4426C20.0554 4.06641 19.7405 4.40643 19.7405 4.82446C19.7405 5.24249 20.0554 5.58258 20.4426 5.58258H26.8725C28.0456 5.58258 29 6.613 29 7.87948C29 9.14612 28.0456 10.1766 26.8725 10.1766H21.9156C21.5283 10.1766 21.2133 10.5166 21.2133 10.9347V12.4623C21.2133 12.8872 20.8942 13.2317 20.5007 13.2317C20.1072 13.2317 19.7881 12.8872 19.7881 12.4623V10.9347C19.7881 9.66818 20.7425 8.63776 21.9156 8.63776H26.8725C27.2597 8.63776 27.5747 8.29759 27.5747 7.87948C27.5747 7.46145 27.2597 7.12144 26.8725 7.12144H20.4426C19.2695 7.12144 18.3152 6.09102 18.3152 4.82446ZM27.6466 24.2303C27.6466 24.6552 27.3274 24.9997 26.9339 24.9997H26.5179C26.5116 24.9999 26.5053 24.9999 26.499 24.9999C26.4926 24.9999 26.4864 24.9999 26.4801 24.9997H2.2477C2.23516 25.0001 2.22247 25.0001 2.21 24.9997H1.71264C1.31912 24.9997 1 24.6552 1 24.2303C1 23.8053 1.31912 23.4608 1.71264 23.4608H1.51618V21.0844C1.51618 17.7326 2.73308 14.5728 4.94284 12.1869C6.84943 10.1283 9.28994 8.86774 11.9177 8.56074V7.38482C11.9177 5.92851 13.0151 4.74367 14.3639 4.74367C15.7128 4.74367 16.8101 5.92844 16.8101 7.38482V8.56166C17.2537 8.61398 17.694 8.69377 18.1277 8.80057C18.5114 8.89506 18.7516 9.30747 18.6641 9.72181C18.5765 10.1361 18.1948 10.3954 17.8108 10.3009C17.07 10.1185 16.3075 10.026 15.5442 10.026H13.1834C7.53592 10.026 2.94132 14.9868 2.94132 21.0844V23.4608H25.7862V21.0844C25.7862 18.0706 24.6716 15.2485 22.6479 13.1381C22.3647 12.8429 22.357 12.3558 22.6304 12.0501C22.9039 11.7444 23.3549 11.7359 23.6381 12.0312C25.9425 14.4343 27.2116 17.6494 27.2116 21.0844V23.4608H26.9339C27.3275 23.4608 27.6466 23.8053 27.6466 24.2303ZM13.343 8.48718H15.3849V7.38482C15.3849 6.77704 14.9269 6.28253 14.364 6.28253C13.801 6.28253 13.343 6.77697 13.343 7.38482V8.48718ZM5.50859 20.9577C5.4813 21.3816 5.77747 21.7491 6.17013 21.7785C6.18695 21.7797 6.20363 21.7803 6.22023 21.7803C6.5913 21.7803 6.90437 21.4699 6.93038 21.0641C7.22135 16.5374 10.6174 12.9914 14.6619 12.9914C15.0554 12.9914 15.3745 12.6469 15.3745 12.2219C15.3745 11.797 15.0554 11.4525 14.6619 11.4525C9.87166 11.4525 5.85101 15.6277 5.50859 20.9577Z" fill="#40AE49" stroke="#40AE49" stroke-width="0.5"/>
</svg>
