<svg width="22" height="20" viewBox="0 0 22 20" fill="none" xmlns="http://www.w3.org/2000/svg">
<path d="M21.9561 8.44399C21.8798 8.28427 21.7169 8.18209 21.5367 8.18209H20.1666C19.2955 3.53364 15.1446 0 10.1694 0C4.56234 0 0 4.48643 0 10.0002C0 15.514 4.56187 20 10.1694 20C13.7881 20 17.163 18.0847 18.9768 15.0026C19.2323 14.5677 19.0816 14.0121 18.6388 13.7603C18.1969 13.5085 17.6315 13.6568 17.3764 14.0917C15.8917 16.6146 13.13 18.1823 10.1694 18.1823C5.58181 18.1823 1.8489 14.512 1.8489 10.0012C1.8489 5.4894 5.58181 1.81906 10.1694 1.81906C14.1209 1.81906 17.4316 4.54443 18.2751 8.18255H16.9158C16.7356 8.18255 16.5732 8.28473 16.4964 8.44446C16.4201 8.60417 16.4449 8.79243 16.5601 8.92822L18.8714 11.6554C18.9594 11.759 19.0891 11.8188 19.2267 11.8188C19.3639 11.8188 19.494 11.7585 19.5815 11.6554L21.8929 8.92822C22.008 8.79197 22.0324 8.60371 21.9561 8.44399Z" fill="#40AE49"/>
<path d="M10.1694 2.27295C9.65876 2.27295 9.24498 2.67984 9.24498 3.18202V8.69811C8.82699 8.98625 8.55176 9.46127 8.55176 10.0007C8.55176 10.878 9.27774 11.5919 10.1699 11.5919C10.4142 11.5919 10.6445 11.5344 10.8523 11.4382L14.068 13.2633C14.2141 13.3466 14.3723 13.3857 14.5296 13.3857C14.8488 13.3857 15.1596 13.2227 15.3309 12.9309C15.586 12.4969 15.4348 11.9404 14.992 11.6895L11.7731 9.86172C11.73 9.38118 11.4758 8.9614 11.0948 8.69903V3.18202C11.0939 2.6803 10.6796 2.27295 10.1694 2.27295ZM10.1694 10.682C9.78701 10.682 9.47621 10.3759 9.47621 10.0007C9.47621 9.62513 9.78748 9.31904 10.1694 9.31904C10.5514 9.31904 10.8626 9.62513 10.8626 10.0007C10.8626 10.3759 10.5514 10.682 10.1694 10.682Z" fill="#40AE49"/>
</svg>
